<?xml version="1.0" standalone="no"?>
<!DOCTYPE svg PUBLIC "-//W3C//DTD SVG 20010904//EN"
 "http://www.w3.org/TR/2001/REC-SVG-20010904/DTD/svg10.dtd">
<svg version="1.0" xmlns="http://www.w3.org/2000/svg"
 width="150.000000pt" height="130.000000pt" viewBox="0 0 150.000000 130.000000"
 preserveAspectRatio="xMidYMid meet">
<metadata>
Created by potrace 1.15, written by Peter Selinger 2001-2017
</metadata>
<g transform="translate(0.000000,130.000000) scale(0.100000,-0.100000)"
fill="#000000" stroke="none">
<path d="M235 836 c-65 -29 -95 -87 -95 -181 0 -74 33 -134 90 -163 41 -21 56
-22 178 -20 105 2 132 0 132 -10 0 -25 31 -67 66 -90 33 -21 41 -22 312 -22
l279 0 40 29 c45 33 63 79 63 165 0 74 -19 118 -66 150 -38 25 -42 26 -204 26
l-166 0 -42 -43 c-46 -47 -49 -54 -26 -59 13 -3 13 -5 1 -23 -12 -15 -30 -20
-85 -23 l-71 -4 -4 -42 -4 -41 -1 45 c-3 60 18 90 61 90 25 0 43 10 75 43 23
23 42 46 42 50 0 12 -159 8 -183 -4 -41 -21 -77 -63 -88 -101 l-10 -38 -114 0
c-122 0 -160 10 -169 44 -12 45 -6 96 14 116 19 19 33 20 269 20 156 0 252 -4
256 -10 8 -13 115 -13 115 0 0 30 -35 73 -73 91 -38 17 -68 19 -302 18 -195 0
-268 -3 -290 -13z m945 -226 c11 -7 15 -27 15 -75 0 -48 -4 -68 -15 -75 -21
-13 -517 -13 -525 0 -4 6 17 10 57 10 103 1 174 46 193 123 l7 27 127 0 c69 0
133 -5 141 -10z"/>
</g>
</svg>
